<?xml version="1.0" encoding="UTF-8" standalone="no"?>
<!-- Created with Inkscape (http://www.inkscape.org/) -->

<svg
   width="1834.0776"
   height="389.98389"
   viewBox="0 0 485.26637 103.18323"
   version="1.1"
   id="svg5"
   xml:space="preserve"
   inkscape:version="1.4.2 (f4327f4, 2025-05-13)"
   sodipodi:docname="jamun-blue-side-logo.svg"
   xmlns:inkscape="http://www.inkscape.org/namespaces/inkscape"
   xmlns:sodipodi="http://sodipodi.sourceforge.net/DTD/sodipodi-0.dtd"
   xmlns="http://www.w3.org/2000/svg"
   xmlns:svg="http://www.w3.org/2000/svg"><sodipodi:namedview
     id="namedview7"
     pagecolor="#ffffff"
     bordercolor="#000000"
     borderopacity="0.25"
     inkscape:showpageshadow="2"
     inkscape:pageopacity="0.0"
     inkscape:pagecheckerboard="0"
     inkscape:deskcolor="#d1d1d1"
     inkscape:document-units="mm"
     showgrid="false"
     inkscape:zoom="0.26104405"
     inkscape:cx="731.67728"
     inkscape:cy="329.44631"
     inkscape:window-width="1440"
     inkscape:window-height="830"
     inkscape:window-x="-6"
     inkscape:window-y="-6"
     inkscape:window-maximized="1"
     inkscape:current-layer="g5127" /><defs
     id="defs2" /><g
     inkscape:label="Layer 1"
     inkscape:groupmode="layer"
     id="layer1"
     transform="translate(-7.5e-6,-0.00212999)"><g
       id="g5127"
       inkscape:export-filename="Downloads\JAMUN_LOGO_PNG.webp"
       inkscape:export-xdpi="96"
       inkscape:export-ydpi="96"><g
         id="g5651"
         inkscape:export-filename="jamun-blue-side-logo.svg"
         inkscape:export-xdpi="96"
         inkscape:export-ydpi="96"
         style="stroke:none"><g
           id="g3685"
           transform="translate(-134.60712,-107.21685)"
           style="fill:#397bce;fill-opacity:1;stroke:none"><path
             style="fill:#397bce;fill-opacity:1;stroke-width:0.955355;stroke:none"
             d="m 241.04458,170.83588 c 0,0 0.49738,-4.88159 -0.24867,-6.93697 -1.9895,-6.16619 -3.97897,-12.84622 -3.7303,-19.26933 1.9895,7.70773 8.20665,10.27696 5.4711,20.81086 0.99475,-2.05538 1.24342,-4.3677 1.98947,-6.42311 1.49213,-5.65232 5.71977,-10.53387 4.47635,-17.21392 1.98946,5.90925 1.98946,10.5339 0,16.70006 -1.24343,4.62469 -5.71978,7.96468 -7.95795,12.33241"
             id="path3666" /><path
             style="fill:#397bce;fill-opacity:1;stroke-width:0.955355;stroke:none"
             d="m 242.288,141.03264 c -0.99471,-2.05541 -2.73555,-4.11079 -4.47635,-5.65235 -4.47631,-3.34002 -8.95266,-7.70772 -9.20133,-13.36007 2.48685,6.1662 10.19609,7.19391 11.93688,13.61702 0,0 -0.99475,-3.85388 -1.24342,-4.62464 -1.24342,-4.36774 -0.99475,-9.50623 -5.22239,-12.33237 8.20661,1.79847 8.70399,11.04775 8.20661,17.98468 0,1.54156 -0.24867,2.82618 0,4.36773"
             id="path3664" /><path
             style="fill:#397bce;fill-opacity:1;stroke-width:0.955355;stroke:none"
             d="m 237.31431,128.70028 c -2.23817,-2.05542 -4.97372,-3.85389 -6.96323,-6.42311 -2.23813,-3.08313 -4.22764,-6.68007 -7.21186,-9.5062 3.97897,1.79847 8.45532,3.33999 11.19084,7.70773 1.49213,2.56922 1.74083,5.65231 2.98425,8.22158"
             id="path3662" /><path
             style="fill:#397bce;fill-opacity:1;stroke-width:0.955355;stroke:none"
             d="m 235.57351,140.00494 c -0.99475,-2.05541 -1.49212,-4.62465 -1.9895,-6.93696 0.49738,1.0277 0.99475,2.0554 1.7408,2.82617 4.72502,4.11079 7.46057,6.42311 8.70399,12.84622 l -0.49734,-5.65235 c -0.49738,-5.65231 2.48685,-11.81851 -0.74608,-16.70007 3.23293,3.59694 4.97372,8.22159 4.97372,12.84623 0,6.16617 -3.48159,10.5339 -3.7303,16.44316 -0.99472,-6.16621 -5.96844,-10.5339 -8.45529,-15.6724"
             id="path3660" /><path
             style="fill:#397bce;fill-opacity:1;stroke-width:0.955355;stroke:none"
             d="m 232.09188,184.96671 c 0,0 1.49213,-2.82617 1.98951,-4.62464 1.7408,-6.93696 0.74604,-15.41545 3.73026,-22.09551 -0.49734,3.85388 0.99476,7.19388 1.24346,10.79085 0.49734,4.88156 -1.24346,8.22155 -2.48688,10.53386 0,0 1.7408,-2.31231 2.48688,-3.59693 3.4816,-5.65231 10.69346,-9.50619 11.19084,-16.44316 0.99475,15.15854 -9.20137,19.26934 -18.15407,25.43553"
             id="path3658" /><path
             style="fill:#397bce;fill-opacity:1;stroke-width:0.955355;stroke:none"
             d="m 198.51934,197.04214 c 11.93692,0 18.15406,10.79084 29.84228,3.59693 -5.71978,7.19391 -14.92114,7.70777 -22.38171,2.82618 -2.98422,-2.05538 -5.71977,-4.88155 -9.45004,-4.88155 -5.71981,0 -11.93692,6.1662 -17.15932,11.81852 -0.99475,-0.77077 -1.74083,-1.54156 -2.48688,-2.31233 5.47111,-5.3954 13.42905,-11.04775 21.63567,-11.04775"
             id="path3656" /><path
             style="fill:#397bce;fill-opacity:1;stroke-width:0.955355;stroke:none"
             d="m 208.46675,197.55599 c -0.74605,-0.25691 -1.7408,-0.25691 -2.73551,-0.51385 3.48159,-0.51385 6.71448,-1.79846 9.20133,-4.11079 3.7303,-3.59693 6.96323,-7.19387 10.9422,-10.02005 -4.22768,8.73544 -5.71977,12.33238 -12.68296,13.87394 0,0 1.98946,-0.25691 2.98422,-0.51386 7.46057,-1.54156 16.41323,0.51386 21.88433,-5.90926 -2.23817,4.11079 -6.46582,7.45078 -10.44479,8.99234 -6.46582,2.05541 -13.18034,-0.25691 -19.14882,-1.79847"
             id="path3654" /><path
             style="fill:#397bce;fill-opacity:1;stroke-width:0.955355;stroke:none"
             d="m 220.90105,194.47291 c 4.72501,-4.11079 5.4711,-10.02004 7.46057,-15.15855 1.24342,-3.34002 3.48159,-6.16616 5.71977,-8.99233 -2.98422,8.7354 -1.24343,14.90159 -8.45533,21.0678 1.24343,-0.51386 2.48689,-1.54156 3.4816,-2.31232 5.71977,-4.88159 14.17509,-5.65236 17.65669,-13.61702 -0.99475,5.90925 -5.47106,11.04775 -10.19612,14.38778 -4.72502,3.08308 -10.69346,2.82617 -15.66718,4.62464"
             id="path3652" /><path
             style="fill:#397bce;fill-opacity:1;stroke-width:0.955355;stroke:none"
             d="m 144.05717,170.83588 c 0,0 -0.49737,-4.88159 0.24867,-6.93697 1.98951,-6.16619 3.97898,-12.84622 3.73031,-19.26933 -1.98951,7.70773 -8.20662,10.27696 -5.4711,20.81086 -0.99472,-2.05538 -1.24343,-4.3677 -1.98947,-6.42311 -1.49213,-5.65232 -5.71977,-10.53387 -4.47635,-17.21392 -1.98947,5.90925 -1.98947,10.5339 0,16.70006 1.24342,4.62469 5.71977,7.96468 7.95794,12.33241"
             id="path3650" /><path
             style="fill:#397bce;fill-opacity:1;stroke-width:0.955355;stroke:none"
             d="m 142.81375,141.03264 c 0.99475,-2.05541 2.73555,-4.11079 4.47635,-5.65235 4.47631,-3.34002 8.95266,-7.70772 9.20137,-13.36007 -2.48688,6.1662 -10.19612,7.19391 -11.93692,13.61702 0,0 0.99475,-3.85388 1.24342,-4.62464 1.24343,-4.36774 0.99476,-9.50623 5.2224,-12.33237 -8.20662,1.79847 -8.70399,11.04775 -8.20662,17.98468 0,1.54156 0.24867,2.82618 0,4.36773"
             id="path3648" /><path
             style="fill:#397bce;fill-opacity:1;stroke-width:0.955355;stroke:none"
             d="m 147.78744,128.70028 c 2.23818,-2.05542 4.97373,-3.85389 6.96323,-6.42311 2.23814,-3.08313 4.22764,-6.68007 7.21186,-9.5062 -3.97897,1.79847 -8.45532,3.33999 -11.19083,7.70773 -1.49213,2.56922 -1.7408,5.65231 -2.98426,8.22158"
             id="path3646" /><path
             style="fill:#397bce;fill-opacity:1;stroke-width:0.955355;stroke:none"
             d="m 149.52828,140.00494 c 0.99471,-2.05541 1.49209,-4.62465 1.98946,-6.93696 -0.49737,1.0277 -0.99475,2.0554 -1.74079,2.82617 -4.72502,4.11079 -7.46057,6.42311 -8.704,12.84622 l 0.49738,-5.65235 c 0.49734,-5.65231 -2.48688,-11.81851 0.74605,-16.70007 -3.23293,3.59694 -4.97373,8.22159 -4.97373,12.84623 0,6.16617 3.4816,10.5339 3.7303,16.44316 0.99472,-6.16621 5.96845,-10.5339 8.45533,-15.6724"
             id="path3644" /><path
             style="fill:#397bce;fill-opacity:1;stroke-width:0.955355;stroke:none"
             d="m 153.00987,184.96671 c 0,0 -1.49213,-2.82617 -1.9895,-4.62464 -1.7408,-6.93696 -0.74605,-15.41545 -3.73027,-22.09551 0.49734,3.85388 -0.99475,7.19388 -1.24346,10.79085 -0.49734,4.88156 1.24346,8.22155 2.48688,10.53386 0,0 -1.74079,-2.31231 -2.48688,-3.59693 -3.48159,-5.65231 -10.69346,-9.50619 -11.19083,-16.44316 -0.99476,15.15854 9.20136,19.26934 18.15406,25.43553"
             id="path3642" /><path
             style="fill:#397bce;fill-opacity:1;stroke-width:0.955355;stroke:none"
             d="m 186.58242,197.04214 c -11.93692,0 -18.15407,10.79084 -29.84228,3.59693 5.71977,7.19391 14.92114,7.70777 22.38171,2.82618 2.98422,-2.05538 5.71977,-4.88155 9.45007,-4.88155 5.71977,0 11.93689,6.1662 17.15932,11.81852 0.99471,-0.77077 1.74076,-1.54156 2.48684,-2.31233 -5.4711,-5.3954 -13.42905,-11.04775 -21.63566,-11.04775"
             id="path3640" /><path
             style="fill:#397bce;fill-opacity:1;stroke-width:0.955355;stroke:none"
             d="m 176.635,197.55599 c 0.74605,-0.25691 1.7408,-0.25691 2.73555,-0.51385 -3.48163,-0.51385 -6.71452,-1.79846 -9.20136,-4.11079 -3.73031,-3.59693 -6.96323,-7.19387 -10.94221,-10.02005 4.22768,8.73544 5.71978,12.33238 12.683,13.87394 0,0 -1.9895,-0.25691 -2.98425,-0.51386 -7.46057,-1.54156 -16.41323,0.51386 -21.88433,-5.90926 2.23817,4.11079 6.46581,7.45078 10.44479,8.99234 6.46585,2.05541 13.18034,-0.25691 19.14881,-1.79847"
             id="path3638" /><path
             style="fill:#397bce;fill-opacity:1;stroke-width:0.955355;stroke:none"
             d="m 164.20071,194.47291 c -4.72502,-4.11079 -5.47107,-10.02004 -7.46057,-15.15855 -1.24342,-3.34002 -3.4816,-6.16616 -5.71977,-8.99233 2.98422,8.7354 1.24342,14.90159 8.45532,21.0678 -1.24342,-0.51386 -2.48688,-1.54156 -3.4816,-2.31232 -5.71977,-4.88159 -14.17509,-5.65236 -17.65669,-13.61702 0.99476,5.90925 5.4711,11.04775 10.19612,14.38778 4.72502,3.08308 10.69346,2.82617 15.66719,4.62464"
             id="path1950" /></g><g
           id="g5250"
           transform="translate(-63.56453,-61.024084)"
           style="fill:#5e5e5e;fill-opacity:1;stroke:none"><rect
             style="fill:#5e5e5e;fill-opacity:1;stroke:none;stroke-width:0.000395032"
             id="rect5205"
             width="5.8208332"
             height="23.8125"
             x="96.382393"
             y="91.205116"
             rx="0.79374999"
             ry="0.79374999" /><rect
             style="fill:#5e5e5e;fill-opacity:1;stroke:none;stroke-width:0.000395032"
             id="rect5207"
             width="5.8208332"
             height="23.8125"
             x="111.19905"
             y="91.205116"
             rx="0.79374999"
             ry="0.79374999" /><rect
             style="fill:#5e5e5e;fill-opacity:1;stroke:none;stroke-width:0.000395032"
             id="rect5209"
             width="5.8208332"
             height="23.8125"
             x="126.01572"
             y="91.205116"
             rx="0.79374999"
             ry="0.79374999" /><rect
             style="fill:#5e5e5e;fill-opacity:1;stroke:none;stroke-width:0.000395032"
             id="rect5211"
             width="5.8208332"
             height="23.8125"
             x="140.83234"
             y="91.205116"
             rx="0.79374999"
             ry="0.79374999" /></g><path
           style="fill:#397bce;fill-opacity:1;stroke:none;stroke-width:0.000499992"
           id="path5213"
           sodipodi:type="arc"
           sodipodi:cx="57.970905"
           sodipodi:cy="-21.168547"
           sodipodi:rx="25.135166"
           sodipodi:ry="21.166168"
           sodipodi:start="0"
           sodipodi:end="3.1415927"
           sodipodi:arc-type="slice"
           d="m 83.106071,-21.168547 a 25.135166,21.166168 0 0 1 -12.567583,18.3304399 25.135166,21.166168 0 0 1 -25.135166,-5e-7 25.135166,21.166168 0 0 1 -12.567583,-18.3304394 h 25.135166 z"
           transform="scale(1,-1)" /><rect
           style="fill:#397bce;fill-opacity:1;stroke:none;stroke-width:0.001"
           id="rect5217"
           width="66.145836"
           height="5.8208332"
           x="24.85758"
           y="22.764402"
           rx="2.6458333"
           ry="2.6458333" /><path
           id="rect5219"
           style="fill:#397bce;fill-opacity:1;stroke:none;stroke-width:0.001"
           d="m 29.64657,55.589332 c -0.43973,0 -0.79376,0.33015 -0.79376,0.74052 v 2.69803 h -3.17499 c -0.43974,0 -0.79376,0.35401 -0.79376,0.79375 v 2.38125 c 0,0.43973 0.35402,0.79375 0.79376,0.79375 h 3.96875 56.61984 3.96979 c 0.43974,0 0.79375,-0.35402 0.79375,-0.79375 v -2.38125 c 0,-0.43974 -0.35401,-0.79375 -0.79375,-0.79375 h -3.17604 v -2.69803 c 0,-0.41037 -0.35402,-0.74052 -0.79375,-0.74052 z" /><g
           aria-label="JAMUN"
           id="text5306"
           style="font-weight:600;font-size:13.4056px;font-family:Montserrat;-inkscape-font-specification:'Montserrat, Semi-Bold';fill:#ff0000;fill-opacity:0.465517;stroke:none;stroke-width:0.001"><path
             d="m 35.824353,78.132339 q -0.898176,0 -1.662295,-0.348545 -0.750713,-0.348546 -1.233315,-1.00542 l 0.992014,-1.193099 q 0.388763,0.536224 0.844553,0.804336 0.469196,0.268112 1.018826,0.268112 1.46121,0 1.46121,-1.729322 v -4.852827 h -3.337994 v -1.46121 h 5.080722 v 6.220198 q 0,1.662294 -0.817741,2.480036 -0.804336,0.817741 -2.34598,0.817741 z"
             style="fill:#5e5e5e;fill-opacity:1;stroke:none"
             id="path5003" /><path
             d="m 39.899669,77.998283 4.222764,-9.383919 h 1.715916 l 4.23617,9.383919 H 48.251357 L 44.61844,69.53935 h 0.697091 l -3.619512,8.458933 z m 1.943812,-2.171707 0.469196,-1.367371 h 5.067316 l 0.469196,1.367371 z"
             style="fill:#5e5e5e;fill-opacity:1;stroke:none"
             id="path5005" /><path
             d="m 51.267624,77.998283 v -9.383919 h 1.434399 l 4.102114,6.850261 h -0.750714 l 4.035086,-6.850261 h 1.434399 l 0.0134,9.383919 H 59.88742 l -0.01341,-6.796639 h 0.348546 l -3.431834,5.724191 h -0.777525 l -3.485455,-5.724191 h 0.402167 v 6.796639 z"
             style="fill:#000000;fill-opacity:1;stroke:none"
             id="path5007" /><path
             d="m 68.105057,78.132339 q -1.930407,0 -3.029666,-1.085853 -1.085853,-1.085854 -1.085853,-3.13691 v -5.295212 h 1.742728 v 5.228184 q 0,1.447804 0.616657,2.104679 0.630063,0.656874 1.769539,0.656874 1.139476,0 1.756134,-0.656874 0.616658,-0.656875 0.616658,-2.104679 v -5.228184 h 1.715916 v 5.295212 q 0,2.051056 -1.099259,3.13691 -1.085853,1.085853 -3.002854,1.085853 z"
             style="fill:#000000;fill-opacity:1;stroke:none"
             id="path5009" /><path
             d="m 74.646982,77.998283 v -9.383919 h 1.4344 l 5.885058,7.225618 h -0.710497 v -7.225618 h 1.729322 v 9.383919 h -1.434399 l -5.885058,-7.225618 h 0.710497 v 7.225618 z"
             style="fill:#000000;fill-opacity:1;stroke:none"
             id="path5011" /></g></g><text
         xml:space="preserve"
         style="font-weight:500;font-size:11.2889px;font-family:Montserrat;-inkscape-font-specification:'Montserrat Medium';fill:#6e6e6e;fill-opacity:0.5;stroke:none;stroke-width:1;stroke-linecap:round;stroke-dasharray:7.99999, 3, 6.00001, 4, 7, 4;stroke-dashoffset:2"
         x="621.3736"
         y="34.403435"
         id="text5453"><tspan
           sodipodi:role="line"
           id="tspan5451"
           style="stroke-width:1;stroke:none"
           x="621.3736"
           y="34.403435" /></text><g
         id="g5618"
         transform="translate(-6.0813492,7.8305201)"
         style="stroke:none"><g
           aria-label="THE JUNIOR ASSEMBLY OF"
           id="text5449"
           style="font-weight:500;font-size:22.5778px;font-family:Montserrat;-inkscape-font-specification:'Montserrat Medium';stroke-linecap:round;stroke-dasharray:7.99999, 3, 6.00001, 4, 7, 4;stroke-dashoffset:2;stroke:none"><path
             d="M 146.51705,36.848793 V 23.527891 H 141.279 v -2.483558 h 13.41122 v 2.483558 h -5.23805 v 13.320902 z"
             style="font-weight:600;-inkscape-font-specification:'Montserrat Semi-Bold';stroke:none"
             id="path5653" /><path
             d="m 168.0111,36.848793 v -15.80446 h 2.93512 v 15.80446 z m -11.10828,0 v -15.80446 h 2.93512 v 15.80446 z m 2.68676,-6.77334 v -2.506136 h 8.6473 v 2.506136 z"
             style="font-weight:600;-inkscape-font-specification:'Montserrat Semi-Bold';stroke:none"
             id="path5655" /><path
             d="m 175.19083,36.848793 v -15.80446 h 11.53726 v 2.46098 h -8.60215 v 10.8825 h 8.91823 v 2.46098 z m 2.70934,-6.818496 v -2.415824 h 7.85707 v 2.415824 z"
             style="font-weight:600;-inkscape-font-specification:'Montserrat Semi-Bold';stroke:none"
             id="path5657" /><path
             d="m 199.01039,37.074571 q -1.51271,0 -2.79965,-0.587023 -1.26435,-0.587023 -2.07715,-1.693335 l 1.67075,-2.009424 q 0.65476,0.903112 1.4224,1.354668 0.79023,0.451556 1.71592,0.451556 2.46098,0 2.46098,-2.912536 v -8.173164 h -5.62187 v -2.46098 h 8.55698 v 10.476099 q 0,2.799647 -1.37724,4.176893 -1.35467,1.377246 -3.95112,1.377246 z"
             style="fill:#5e5e5e;stroke:none"
             id="path5659" /><path
             d="m 215.24384,37.074571 q -3.2512,0 -5.10258,-1.828802 -1.82881,-1.828802 -1.82881,-5.283205 v -8.918231 h 2.93512 v 8.805342 q 0,2.438402 1.03858,3.544715 1.06115,1.106312 2.98027,1.106312 1.91911,0 2.95769,-1.106312 1.03858,-1.106313 1.03858,-3.544715 v -8.805342 h 2.88996 v 8.918231 q 0,3.454403 -1.85138,5.283205 -1.82881,1.828802 -5.05743,1.828802 z"
             style="fill:#5e5e5e;stroke:none"
             id="path5661" /><path
             d="m 226.26179,36.848793 v -15.80446 h 2.41583 l 9.91165,12.169434 h -1.19662 V 21.044333 h 2.91254 v 15.80446 h -2.41583 l -9.91165,-12.169435 h 1.19662 v 12.169435 z"
             style="fill:#5e5e5e;stroke:none"
             id="path5663" /><path
             d="m 244.5498,36.848793 v -15.80446 h 2.93512 v 15.80446 z"
             style="fill:#5e5e5e;stroke:none"
             id="path5665" /><path
             d="m 259.15765,37.074571 q -1.85138,0 -3.40925,-0.609601 -1.55787,-0.6096 -2.70934,-1.693335 -1.15147,-1.106312 -1.78364,-2.573869 -0.63218,-1.490135 -0.63218,-3.251203 0,-1.761069 0.63218,-3.228626 0.63217,-1.490135 1.78364,-2.573869 1.15147,-1.106312 2.70934,-1.715913 1.55787,-0.609601 3.38667,-0.609601 1.85138,0 3.38667,0.609601 1.55787,0.609601 2.70933,1.715913 1.15147,1.083734 1.78365,2.573869 0.63218,1.467557 0.63218,3.228626 0,1.761068 -0.63218,3.251203 -0.63218,1.490135 -1.78365,2.573869 -1.15146,1.083735 -2.70933,1.693335 -1.53529,0.609601 -3.36409,0.609601 z m -0.0226,-2.573869 q 1.19662,0 2.21262,-0.406401 1.016,-0.4064 1.76107,-1.151468 0.74507,-0.767645 1.15147,-1.761068 0.42898,-1.016001 0.42898,-2.235202 0,-1.219201 -0.42898,-2.212625 -0.4064,-1.016001 -1.15147,-1.761068 -0.74507,-0.767645 -1.76107,-1.174046 -1.016,-0.4064 -2.21262,-0.4064 -1.19663,0 -2.21263,0.4064 -0.99342,0.406401 -1.76106,1.174046 -0.74507,0.745067 -1.17405,1.761068 -0.4064,0.993424 -0.4064,2.212625 0,1.196623 0.4064,2.212624 0.42898,1.016001 1.17405,1.783646 0.74506,0.745068 1.76106,1.151468 1.016,0.406401 2.21263,0.406401 z"
             style="fill:#5e5e5e;stroke:none"
             id="path5667" /><path
             d="m 270.76266,36.848793 v -15.80446 h 6.47982 q 3.1609,0 4.94454,1.490134 1.80623,1.490135 1.80623,4.131738 0,1.738491 -0.8128,3.002847 -0.8128,1.241779 -2.32552,1.919113 -1.49013,0.654757 -3.58987,0.654757 h -4.8768 l 1.30951,-1.332091 v 5.937962 z m 10.34063,0 -3.99627,-5.734761 h 3.13831 l 4.01885,5.734761 z m -7.40552,-5.621872 -1.30951,-1.399824 h 4.74134 q 1.94169,0 2.91253,-0.835379 0.99343,-0.835378 0.99343,-2.325513 0,-1.512713 -0.99343,-2.325514 -0.97084,-0.8128 -2.91253,-0.8128 h -4.74134 l 1.30951,-1.44498 z"
             style="fill:#5e5e5e;stroke:none"
             id="path5669" /><path
             d="m 291.2633,36.848793 7.11201,-15.80446 h 2.88996 l 7.13458,15.80446 h -3.07058 l -6.11858,-14.246592 h 1.17404 l -6.096,14.246592 z m 3.27378,-3.657604 0.79023,-2.302935 h 8.5344 l 0.79023,2.302935 z"
             style="fill:#5e5e5e;stroke:none"
             id="path5671" /><path
             d="m 315.30867,37.074571 q -1.85138,0 -3.54472,-0.519289 -1.69333,-0.541868 -2.68675,-1.377246 l 1.016,-2.280358 q 0.94826,0.745067 2.34809,1.241779 1.39982,0.496712 2.86738,0.496712 1.24178,0 2.00942,-0.270934 0.76765,-0.270934 1.12889,-0.72249 0.36125,-0.474133 0.36125,-1.061156 0,-0.72249 -0.51929,-1.151468 -0.51929,-0.451556 -1.35467,-0.699912 -0.8128,-0.270934 -1.8288,-0.496712 -0.99343,-0.225778 -2.00943,-0.519289 -0.99342,-0.316089 -1.8288,-0.790223 -0.8128,-0.496712 -1.33209,-1.309512 -0.51929,-0.812801 -0.51929,-2.077158 0,-1.286935 0.67734,-2.348091 0.69991,-1.083735 2.09973,-1.715913 1.4224,-0.654757 3.58987,-0.654757 1.4224,0 2.82223,0.361245 1.39982,0.361245 2.4384,1.038579 l -0.92569,2.280358 q -1.06116,-0.632178 -2.19005,-0.92569 -1.12889,-0.316089 -2.16747,-0.316089 -1.2192,0 -1.98684,0.293511 -0.74507,0.293512 -1.10631,0.767646 -0.33867,0.474133 -0.33867,1.083734 0,0.72249 0.49671,1.174046 0.51929,0.428978 1.33209,0.677334 0.83538,0.248356 1.85138,0.496711 1.016,0.225778 2.00942,0.51929 1.01601,0.293511 1.82881,0.767645 0.83537,0.474134 1.33209,1.286935 0.51929,0.8128 0.51929,2.054579 0,1.264357 -0.69992,2.348092 -0.67733,1.061156 -2.09973,1.715913 -1.4224,0.632178 -3.58987,0.632178 z"
             style="fill:#5e5e5e;stroke:none"
             id="path5673" /><path
             d="m 329.5101,37.074571 q -1.85138,0 -3.54472,-0.519289 -1.69333,-0.541868 -2.68675,-1.377246 l 1.016,-2.280358 q 0.94827,0.745067 2.34809,1.241779 1.39982,0.496712 2.86738,0.496712 1.24178,0 2.00942,-0.270934 0.76765,-0.270934 1.12889,-0.72249 0.36125,-0.474133 0.36125,-1.061156 0,-0.72249 -0.51929,-1.151468 -0.51929,-0.451556 -1.35467,-0.699912 -0.8128,-0.270934 -1.8288,-0.496712 -0.99342,-0.225778 -2.00943,-0.519289 -0.99342,-0.316089 -1.8288,-0.790223 -0.8128,-0.496712 -1.33209,-1.309512 -0.51929,-0.812801 -0.51929,-2.077158 0,-1.286935 0.67734,-2.348091 0.69991,-1.083735 2.09973,-1.715913 1.4224,-0.654757 3.58987,-0.654757 1.4224,0 2.82223,0.361245 1.39982,0.361245 2.4384,1.038579 l -0.92569,2.280358 q -1.06116,-0.632178 -2.19005,-0.92569 -1.12889,-0.316089 -2.16746,-0.316089 -1.21921,0 -1.98685,0.293511 -0.74507,0.293512 -1.10631,0.767646 -0.33867,0.474133 -0.33867,1.083734 0,0.72249 0.49671,1.174046 0.51929,0.428978 1.33209,0.677334 0.83538,0.248356 1.85138,0.496711 1.016,0.225778 2.00943,0.51929 1.016,0.293511 1.8288,0.767645 0.83538,0.474134 1.33209,1.286935 0.51929,0.8128 0.51929,2.054579 0,1.264357 -0.69991,2.348092 -0.67734,1.061156 -2.09974,1.715913 -1.4224,0.632178 -3.58987,0.632178 z"
             style="fill:#5e5e5e;stroke:none"
             id="path5675" /><path
             d="m 338.81215,36.848793 v -15.80446 h 11.53725 v 2.46098 h -8.60214 v 10.8825 h 8.91823 v 2.46098 z m 2.70933,-6.818496 v -2.415824 h 7.85708 v 2.415824 z"
             style="fill:#5e5e5e;stroke:none"
             id="path5677" /><path
             d="m 353.93927,36.848793 v -15.80446 h 2.41582 l 6.90881,11.537256 h -1.26436 l 6.79592,-11.537256 h 2.41583 l 0.0226,15.80446 h -2.77707 l -0.0226,-11.446945 h 0.58702 l -5.77992,9.640721 h -1.30951 l -5.87023,-9.640721 h 0.67734 v 11.446945 z"
             style="fill:#5e5e5e;stroke:none"
             id="path5679" /><path
             d="m 375.50107,36.848793 v -15.80446 h 7.40552 q 2.8448,0 4.33493,1.12889 1.49014,1.106312 1.49014,2.980269 0,1.264357 -0.58702,2.167469 -0.58703,0.880534 -1.58045,1.377246 -0.97085,0.474134 -2.12231,0.474134 l 0.4064,-0.812801 q 1.33209,0 2.39324,0.496712 1.06116,0.474133 1.67076,1.399823 0.63218,0.92569 0.63218,2.302936 0,2.032002 -1.55787,3.160892 -1.55787,1.12889 -4.62845,1.12889 z m 2.93511,-2.302936 h 4.74134 q 1.64818,0 2.52871,-0.541867 0.88054,-0.541867 0.88054,-1.738491 0,-1.174045 -0.88054,-1.715912 -0.88053,-0.564445 -2.52871,-0.564445 h -4.96712 v -2.280358 h 4.3801 q 1.53529,0 2.34809,-0.541867 0.83538,-0.541868 0.83538,-1.625602 0,-1.106312 -0.83538,-1.64818 -0.8128,-0.541867 -2.34809,-0.541867 h -4.15432 z"
             style="fill:#5e5e5e;stroke:none"
             id="path5681" /><path
             d="m 392.68277,36.848793 v -15.80446 h 2.93511 v 13.320902 h 8.26348 v 2.483558 z"
             style="fill:#5e5e5e;stroke:none"
             id="path5683" /><path
             d="m 408.4421,36.848793 v -6.254051 l 0.65475,1.806224 -6.86365,-11.356633 h 3.13832 l 5.50898,9.144009 h -1.76107 l 5.55414,-9.144009 h 2.88996 l -6.86365,11.356633 0.67733,-1.806224 v 6.254051 z"
             style="fill:#5e5e5e;stroke:none"
             id="path5685" /><path
             d="m 433.1196,37.074571 q -1.85138,0 -3.40925,-0.609601 -1.55787,-0.6096 -2.70934,-1.693335 -1.15146,-1.106312 -1.78364,-2.573869 -0.63218,-1.490135 -0.63218,-3.251203 0,-1.761069 0.63218,-3.228626 0.63218,-1.490135 1.78364,-2.573869 1.15147,-1.106312 2.70934,-1.715913 1.55787,-0.609601 3.38667,-0.609601 1.85138,0 3.38667,0.609601 1.55787,0.609601 2.70934,1.715913 1.15146,1.083734 1.78364,2.573869 0.63218,1.467557 0.63218,3.228626 0,1.761068 -0.63218,3.251203 -0.63218,1.490135 -1.78364,2.573869 -1.15147,1.083735 -2.70934,1.693335 -1.53529,0.609601 -3.36409,0.609601 z m -0.0226,-2.573869 q 1.19662,0 2.21262,-0.406401 1.01601,-0.4064 1.76107,-1.151468 0.74507,-0.767645 1.15147,-1.761068 0.42898,-1.016001 0.42898,-2.235202 0,-1.219201 -0.42898,-2.212625 -0.4064,-1.016001 -1.15147,-1.761068 -0.74506,-0.767645 -1.76107,-1.174046 -1.016,-0.4064 -2.21262,-0.4064 -1.19662,0 -2.21262,0.4064 -0.99343,0.406401 -1.76107,1.174046 -0.74507,0.745067 -1.17405,1.761068 -0.4064,0.993424 -0.4064,2.212625 0,1.196623 0.4064,2.212624 0.42898,1.016001 1.17405,1.783646 0.74506,0.745068 1.76107,1.151468 1.016,0.406401 2.21262,0.406401 z"
             style="font-weight:600;-inkscape-font-specification:'Montserrat Semi-Bold';stroke:none"
             id="path5687" /><path
             d="m 444.72461,36.848793 v -15.80446 h 11.53725 v 2.46098 h -8.60214 v 13.34348 z m 2.68676,-6.050851 v -2.483558 h 7.87965 v 2.483558 z"
             style="font-weight:600;-inkscape-font-specification:'Montserrat Semi-Bold';stroke:none"
             id="path5689" /></g><g
           aria-label="THE MODEL UNITED NATIONS"
           id="text5507"
           style="font-weight:500;font-size:22.5778px;font-family:Montserrat;-inkscape-font-specification:'Montserrat Medium';stroke-linecap:round;stroke-dasharray:7.99999, 3, 6.00001, 4, 7, 4;stroke-dashoffset:2;stroke:none"><path
             d="M 146.51705,66.482132 V 53.16123 H 141.279 v -2.483559 h 13.41122 v 2.483559 h -5.23805 v 13.320902 z"
             style="font-weight:600;-inkscape-font-specification:'Montserrat Semi-Bold';stroke:none"
             id="path5692" /><path
             d="M 168.0111,66.482132 V 50.677671 h 2.93512 v 15.804461 z m -11.10828,0 V 50.677671 h 2.93512 v 15.804461 z m 2.68676,-6.77334 v -2.506136 h 8.6473 v 2.506136 z"
             style="font-weight:600;-inkscape-font-specification:'Montserrat Semi-Bold';stroke:none"
             id="path5694" /><path
             d="M 175.19083,66.482132 V 50.677671 h 11.53726 v 2.460981 h -8.60215 v 10.8825 h 8.91823 v 2.46098 z m 2.70934,-6.818496 v -2.415825 h 7.85707 v 2.415825 z"
             style="font-weight:600;-inkscape-font-specification:'Montserrat Semi-Bold';stroke:none"
             id="path5696" /><path
             d="M 196.54941,66.482132 V 50.677671 h 2.41583 l 6.9088,11.537257 h -1.26435 l 6.79591,-11.537257 h 2.41583 l 0.0226,15.804461 h -2.77707 l -0.0226,-11.446945 h 0.58702 l -5.77992,9.640721 h -1.30951 l -5.87023,-9.640721 h 0.67734 v 11.446945 z"
             style="font-weight:600;-inkscape-font-specification:'Montserrat Semi-Bold';stroke:none"
             id="path5698" /><path
             d="m 225.51672,66.70791 q -1.85138,0 -3.40924,-0.609601 -1.55787,-0.6096 -2.70934,-1.693335 -1.15147,-1.106312 -1.78365,-2.573869 -0.63218,-1.490135 -0.63218,-3.251203 0,-1.761069 0.63218,-3.228626 0.63218,-1.490135 1.78365,-2.573869 1.15147,-1.106312 2.70934,-1.715913 1.55786,-0.609601 3.38667,-0.609601 1.85138,0 3.38667,0.609601 1.55786,0.609601 2.70933,1.715913 1.15147,1.083734 1.78365,2.573869 0.63218,1.467557 0.63218,3.228626 0,1.761068 -0.63218,3.251203 -0.63218,1.490135 -1.78365,2.573869 -1.15147,1.083735 -2.70933,1.693335 -1.53529,0.609601 -3.3641,0.609601 z m -0.0226,-2.573869 q 1.19662,0 2.21262,-0.406401 1.016,-0.4064 1.76107,-1.151468 0.74507,-0.767645 1.15147,-1.761068 0.42897,-1.016001 0.42897,-2.235202 0,-1.219202 -0.42897,-2.212625 -0.4064,-1.016001 -1.15147,-1.761068 -0.74507,-0.767645 -1.76107,-1.174046 -1.016,-0.4064 -2.21262,-0.4064 -1.19663,0 -2.21263,0.4064 -0.99342,0.406401 -1.76107,1.174046 -0.74506,0.745067 -1.17404,1.761068 -0.4064,0.993423 -0.4064,2.212625 0,1.196623 0.4064,2.212624 0.42898,1.016001 1.17404,1.783646 0.74507,0.745068 1.76107,1.151468 1.016,0.406401 2.21263,0.406401 z"
             style="font-weight:600;-inkscape-font-specification:'Montserrat Semi-Bold';stroke:none"
             id="path5700" /><path
             d="M 237.12174,66.482132 V 50.677671 h 6.90881 q 2.57387,0 4.51556,0.993424 1.94169,0.993423 3.02542,2.754491 1.08374,1.761069 1.08374,4.154316 0,2.370669 -1.08374,4.154315 -1.08373,1.761068 -3.02542,2.754492 -1.94169,0.993423 -4.51556,0.993423 z m 2.93512,-2.483558 h 3.83822 q 1.76107,0 3.07058,-0.677334 1.30951,-0.677334 2.00943,-1.896535 0.72249,-1.219202 0.72249,-2.844803 0,-1.64818 -0.72249,-2.844803 -0.69992,-1.219201 -2.00943,-1.896535 -1.30951,-0.677334 -3.07058,-0.677334 h -3.83822 z"
             style="font-weight:600;-inkscape-font-specification:'Montserrat Semi-Bold';stroke:none"
             id="path5702" /><path
             d="M 255.77101,66.482132 V 50.677671 h 11.53726 v 2.460981 h -8.60215 v 10.8825 h 8.91824 v 2.46098 z m 2.70934,-6.818496 v -2.415825 h 7.85707 v 2.415825 z"
             style="font-weight:600;-inkscape-font-specification:'Montserrat Semi-Bold';stroke:none"
             id="path5704" /><path
             d="M 270.89814,66.482132 V 50.677671 h 2.93511 v 13.320903 h 8.26348 v 2.483558 z"
             style="font-weight:600;-inkscape-font-specification:'Montserrat Semi-Bold';stroke:none"
             id="path5706" /><path
             d="m 297.44963,66.70791 q -3.2512,0 -5.10258,-1.828802 -1.8288,-1.828802 -1.8288,-5.283205 v -8.918232 h 2.93511 v 8.805343 q 0,2.438402 1.03858,3.544714 1.06116,1.106313 2.98027,1.106313 1.91911,0 2.95769,-1.106313 1.03858,-1.106312 1.03858,-3.544714 v -8.805343 h 2.88996 v 8.918232 q 0,3.454403 -1.85138,5.283205 -1.8288,1.828802 -5.05743,1.828802 z"
             style="font-weight:600;-inkscape-font-specification:'Montserrat Semi-Bold';stroke:none"
             id="path5708" /><path
             d="M 308.46759,66.482132 V 50.677671 h 2.41582 l 9.91166,12.169435 h -1.19663 V 50.677671 h 2.91254 v 15.804461 h -2.41582 L 310.1835,54.312697 h 1.19663 v 12.169435 z"
             style="font-weight:600;-inkscape-font-specification:'Montserrat Semi-Bold';stroke:none"
             id="path5710" /><path
             d="M 326.7556,66.482132 V 50.677671 h 2.93511 v 15.804461 z"
             style="font-weight:600;-inkscape-font-specification:'Montserrat Semi-Bold';stroke:none"
             id="path5712" /><path
             d="M 337.16396,66.482132 V 53.16123 h -5.23805 v -2.483559 h 13.41122 v 2.483559 h -5.23805 v 13.320902 z"
             style="font-weight:600;-inkscape-font-specification:'Montserrat Semi-Bold';stroke:none"
             id="path5714" /><path
             d="M 347.54974,66.482132 V 50.677671 H 359.087 v 2.460981 h -8.60214 v 10.8825 h 8.91823 v 2.46098 z m 2.70934,-6.818496 v -2.415825 h 7.85707 v 2.415825 z"
             style="font-weight:600;-inkscape-font-specification:'Montserrat Semi-Bold';stroke:none"
             id="path5716" /><path
             d="M 362.67686,66.482132 V 50.677671 h 6.90881 q 2.57387,0 4.51556,0.993424 1.94169,0.993423 3.02543,2.754491 1.08373,1.761069 1.08373,4.154316 0,2.370669 -1.08373,4.154315 -1.08374,1.761068 -3.02543,2.754492 -1.94169,0.993423 -4.51556,0.993423 z m 2.93512,-2.483558 h 3.83822 q 1.76107,0 3.07058,-0.677334 1.30952,-0.677334 2.00943,-1.896535 0.72249,-1.219202 0.72249,-2.844803 0,-1.64818 -0.72249,-2.844803 -0.69991,-1.219201 -2.00943,-1.896535 -1.30951,-0.677334 -3.07058,-0.677334 h -3.83822 z"
             style="font-weight:600;-inkscape-font-specification:'Montserrat Semi-Bold';stroke:none"
             id="path5718" /><path
             d="M 387.55759,66.482132 V 50.677671 h 2.41582 l 9.91165,12.169435 h -1.19662 V 50.677671 h 2.91254 v 15.804461 h -2.41583 L 389.2735,54.312697 h 1.19662 v 12.169435 z"
             style="font-weight:600;-inkscape-font-specification:'Montserrat Semi-Bold';stroke:none"
             id="path5720" /><path
             d="m 403.61038,66.482132 7.112,-15.804461 h 2.88996 l 7.13459,15.804461 h -3.07058 L 411.55776,52.23554 h 1.17405 l -6.09601,14.246592 z m 3.27378,-3.657604 0.79022,-2.302935 h 8.53441 l 0.79022,2.302935 z"
             style="font-weight:600;-inkscape-font-specification:'Montserrat Semi-Bold';stroke:none"
             id="path5722" /><path
             d="M 425.1722,66.482132 V 53.16123 h -5.23805 v -2.483559 h 13.41122 v 2.483559 h -5.23805 v 13.320902 z"
             style="font-weight:600;-inkscape-font-specification:'Montserrat Semi-Bold';stroke:none"
             id="path5724" /><path
             d="M 435.55798,66.482132 V 50.677671 h 2.93512 v 15.804461 z"
             style="font-weight:600;-inkscape-font-specification:'Montserrat Semi-Bold';stroke:none"
             id="path5726" /><path
             d="m 450.16583,66.70791 q -1.85138,0 -3.40925,-0.609601 -1.55786,-0.6096 -2.70933,-1.693335 -1.15147,-1.106312 -1.78365,-2.573869 -0.63218,-1.490135 -0.63218,-3.251203 0,-1.761069 0.63218,-3.228626 0.63218,-1.490135 1.78365,-2.573869 1.15147,-1.106312 2.70933,-1.715913 1.55787,-0.609601 3.38667,-0.609601 1.85138,0 3.38667,0.609601 1.55787,0.609601 2.70934,1.715913 1.15147,1.083734 1.78365,2.573869 0.63218,1.467557 0.63218,3.228626 0,1.761068 -0.63218,3.251203 -0.63218,1.490135 -1.78365,2.573869 -1.15147,1.083735 -2.70934,1.693335 -1.53529,0.609601 -3.36409,0.609601 z m -0.0226,-2.573869 q 1.19663,0 2.21263,-0.406401 1.016,-0.4064 1.76107,-1.151468 0.74506,-0.767645 1.15147,-1.761068 0.42897,-1.016001 0.42897,-2.235202 0,-1.219202 -0.42897,-2.212625 -0.40641,-1.016001 -1.15147,-1.761068 -0.74507,-0.767645 -1.76107,-1.174046 -1.016,-0.4064 -2.21263,-0.4064 -1.19662,0 -2.21262,0.4064 -0.99342,0.406401 -1.76107,1.174046 -0.74507,0.745067 -1.17404,1.761068 -0.4064,0.993423 -0.4064,2.212625 0,1.196623 0.4064,2.212624 0.42897,1.016001 1.17404,1.783646 0.74507,0.745068 1.76107,1.151468 1.016,0.406401 2.21262,0.406401 z"
             style="font-weight:600;-inkscape-font-specification:'Montserrat Semi-Bold';stroke:none"
             id="path5728" /><path
             d="M 461.77084,66.482132 V 50.677671 h 2.41583 l 9.91165,12.169435 H 472.9017 V 50.677671 h 2.91253 v 15.804461 h -2.41582 l -9.91165,-12.169435 h 1.19662 v 12.169435 z"
             style="font-weight:600;-inkscape-font-specification:'Montserrat Semi-Bold';stroke:none"
             id="path5730" /><path
             d="m 484.95822,66.70791 q -1.85138,0 -3.54472,-0.519289 -1.69333,-0.541868 -2.68675,-1.377246 l 1.016,-2.280358 q 0.94827,0.745067 2.34809,1.241779 1.39982,0.496711 2.86738,0.496711 1.24178,0 2.00942,-0.270933 0.76765,-0.270934 1.12889,-0.72249 0.36125,-0.474134 0.36125,-1.061156 0,-0.72249 -0.51929,-1.151468 -0.51929,-0.451556 -1.35467,-0.699912 -0.8128,-0.270934 -1.8288,-0.496712 -0.99342,-0.225778 -2.00943,-0.519289 -0.99342,-0.316089 -1.8288,-0.790223 -0.8128,-0.496712 -1.33209,-1.309513 -0.51929,-0.8128 -0.51929,-2.077157 0,-1.286935 0.67734,-2.348091 0.69991,-1.083735 2.09973,-1.715913 1.4224,-0.654757 3.58987,-0.654757 1.4224,0 2.82223,0.361245 1.39982,0.361245 2.4384,1.038579 l -0.92569,2.280358 q -1.06116,-0.632178 -2.19005,-0.92569 -1.12889,-0.316089 -2.16746,-0.316089 -1.21921,0 -1.98685,0.293511 -0.74507,0.293512 -1.10631,0.767646 -0.33867,0.474133 -0.33867,1.083734 0,0.72249 0.49671,1.174046 0.51929,0.428978 1.33209,0.677334 0.83538,0.248355 1.85138,0.496711 1.016,0.225778 2.00943,0.51929 1.016,0.293511 1.8288,0.767645 0.83538,0.474134 1.33209,1.286935 0.51929,0.8128 0.51929,2.054579 0,1.264357 -0.69991,2.348092 -0.67734,1.061156 -2.09974,1.715913 -1.4224,0.632178 -3.58987,0.632178 z"
             style="font-weight:600;-inkscape-font-specification:'Montserrat Semi-Bold';stroke:none"
             id="path5732" /></g></g></g></g></svg>
