<?xml version="1.0" encoding="UTF-8" standalone="no"?>
<!-- Created with Inkscape (http://www.inkscape.org/) -->

<svg
   width="438"
   height="389.98392"
   viewBox="0 0 115.8875 103.18324"
   version="1.1"
   id="svg5"
   xml:space="preserve"
   inkscape:version="1.2.2 (732a01da63, 2022-12-09)"
   sodipodi:docname="JAMUN_LOGO.svg"
   xmlns:inkscape="http://www.inkscape.org/namespaces/inkscape"
   xmlns:sodipodi="http://sodipodi.sourceforge.net/DTD/sodipodi-0.dtd"
   xmlns="http://www.w3.org/2000/svg"
   xmlns:svg="http://www.w3.org/2000/svg"><sodipodi:namedview
     id="namedview7"
     pagecolor="#c90000"
     bordercolor="#000000"
     borderopacity="0.25"
     inkscape:showpageshadow="2"
     inkscape:pageopacity="1"
     inkscape:pagecheckerboard="0"
     inkscape:deskcolor="#d1d1d1"
     inkscape:document-units="mm"
     showgrid="false"
     inkscape:zoom="1.0441762"
     inkscape:cx="150.83661"
     inkscape:cy="312.20784"
     inkscape:window-width="2560"
     inkscape:window-height="1334"
     inkscape:window-x="-11"
     inkscape:window-y="-11"
     inkscape:window-maximized="1"
     inkscape:current-layer="g5127" /><defs
     id="defs2" /><g
     inkscape:label="Layer 1"
     inkscape:groupmode="layer"
     id="layer1"
     transform="translate(-7.4999998e-6,-0.00212999)"><g
       id="g5127"
       inkscape:export-filename="Downloads\favicon.png"
       inkscape:export-xdpi="96"
       inkscape:export-ydpi="96"><g
         id="g3685"
         transform="translate(-134.60712,-107.21685)"
         style="fill:#ffffff;fill-opacity:1"><path
           style="fill:#ffffff;fill-opacity:1;stroke-width:0.955355"
           d="m 241.04458,170.83588 c 0,0 0.49738,-4.88159 -0.24867,-6.93697 -1.9895,-6.16619 -3.97897,-12.84622 -3.7303,-19.26933 1.9895,7.70773 8.20665,10.27696 5.4711,20.81086 0.99475,-2.05538 1.24342,-4.3677 1.98947,-6.42311 1.49213,-5.65232 5.71977,-10.53387 4.47635,-17.21392 1.98946,5.90925 1.98946,10.5339 0,16.70006 -1.24343,4.62469 -5.71978,7.96468 -7.95795,12.33241"
           id="path3666" /><path
           style="fill:#ffffff;fill-opacity:1;stroke-width:0.955355"
           d="m 242.288,141.03264 c -0.99471,-2.05541 -2.73555,-4.11079 -4.47635,-5.65235 -4.47631,-3.34002 -8.95266,-7.70772 -9.20133,-13.36007 2.48685,6.1662 10.19609,7.19391 11.93688,13.61702 0,0 -0.99475,-3.85388 -1.24342,-4.62464 -1.24342,-4.36774 -0.99475,-9.50623 -5.22239,-12.33237 8.20661,1.79847 8.70399,11.04775 8.20661,17.98468 0,1.54156 -0.24867,2.82618 0,4.36773"
           id="path3664" /><path
           style="fill:#ffffff;fill-opacity:1;stroke-width:0.955355"
           d="m 237.31431,128.70028 c -2.23817,-2.05542 -4.97372,-3.85389 -6.96323,-6.42311 -2.23813,-3.08313 -4.22764,-6.68007 -7.21186,-9.5062 3.97897,1.79847 8.45532,3.33999 11.19084,7.70773 1.49213,2.56922 1.74083,5.65231 2.98425,8.22158"
           id="path3662" /><path
           style="fill:#ffffff;fill-opacity:1;stroke-width:0.955355"
           d="m 235.57351,140.00494 c -0.99475,-2.05541 -1.49212,-4.62465 -1.9895,-6.93696 0.49738,1.0277 0.99475,2.0554 1.7408,2.82617 4.72502,4.11079 7.46057,6.42311 8.70399,12.84622 l -0.49734,-5.65235 c -0.49738,-5.65231 2.48685,-11.81851 -0.74608,-16.70007 3.23293,3.59694 4.97372,8.22159 4.97372,12.84623 0,6.16617 -3.48159,10.5339 -3.7303,16.44316 -0.99472,-6.16621 -5.96844,-10.5339 -8.45529,-15.6724"
           id="path3660" /><path
           style="fill:#ffffff;fill-opacity:1;stroke-width:0.955355"
           d="m 232.09188,184.96671 c 0,0 1.49213,-2.82617 1.98951,-4.62464 1.7408,-6.93696 0.74604,-15.41545 3.73026,-22.09551 -0.49734,3.85388 0.99476,7.19388 1.24346,10.79085 0.49734,4.88156 -1.24346,8.22155 -2.48688,10.53386 0,0 1.7408,-2.31231 2.48688,-3.59693 3.4816,-5.65231 10.69346,-9.50619 11.19084,-16.44316 0.99475,15.15854 -9.20137,19.26934 -18.15407,25.43553"
           id="path3658" /><path
           style="fill:#ffffff;fill-opacity:1;stroke-width:0.955355"
           d="m 198.51934,197.04214 c 11.93692,0 18.15406,10.79084 29.84228,3.59693 -5.71978,7.19391 -14.92114,7.70777 -22.38171,2.82618 -2.98422,-2.05538 -5.71977,-4.88155 -9.45004,-4.88155 -5.71981,0 -11.93692,6.1662 -17.15932,11.81852 -0.99475,-0.77077 -1.74083,-1.54156 -2.48688,-2.31233 5.47111,-5.3954 13.42905,-11.04775 21.63567,-11.04775"
           id="path3656" /><path
           style="fill:#ffffff;fill-opacity:1;stroke-width:0.955355"
           d="m 208.46675,197.55599 c -0.74605,-0.25691 -1.7408,-0.25691 -2.73551,-0.51385 3.48159,-0.51385 6.71448,-1.79846 9.20133,-4.11079 3.7303,-3.59693 6.96323,-7.19387 10.9422,-10.02005 -4.22768,8.73544 -5.71977,12.33238 -12.68296,13.87394 0,0 1.98946,-0.25691 2.98422,-0.51386 7.46057,-1.54156 16.41323,0.51386 21.88433,-5.90926 -2.23817,4.11079 -6.46582,7.45078 -10.44479,8.99234 -6.46582,2.05541 -13.18034,-0.25691 -19.14882,-1.79847"
           id="path3654" /><path
           style="fill:#ffffff;fill-opacity:1;stroke-width:0.955355"
           d="m 220.90105,194.47291 c 4.72501,-4.11079 5.4711,-10.02004 7.46057,-15.15855 1.24342,-3.34002 3.48159,-6.16616 5.71977,-8.99233 -2.98422,8.7354 -1.24343,14.90159 -8.45533,21.0678 1.24343,-0.51386 2.48689,-1.54156 3.4816,-2.31232 5.71977,-4.88159 14.17509,-5.65236 17.65669,-13.61702 -0.99475,5.90925 -5.47106,11.04775 -10.19612,14.38778 -4.72502,3.08308 -10.69346,2.82617 -15.66718,4.62464"
           id="path3652" /><path
           style="fill:#ffffff;fill-opacity:1;stroke-width:0.955355"
           d="m 144.05717,170.83588 c 0,0 -0.49737,-4.88159 0.24867,-6.93697 1.98951,-6.16619 3.97898,-12.84622 3.73031,-19.26933 -1.98951,7.70773 -8.20662,10.27696 -5.4711,20.81086 -0.99472,-2.05538 -1.24343,-4.3677 -1.98947,-6.42311 -1.49213,-5.65232 -5.71977,-10.53387 -4.47635,-17.21392 -1.98947,5.90925 -1.98947,10.5339 0,16.70006 1.24342,4.62469 5.71977,7.96468 7.95794,12.33241"
           id="path3650" /><path
           style="fill:#ffffff;fill-opacity:1;stroke-width:0.955355"
           d="m 142.81375,141.03264 c 0.99475,-2.05541 2.73555,-4.11079 4.47635,-5.65235 4.47631,-3.34002 8.95266,-7.70772 9.20137,-13.36007 -2.48688,6.1662 -10.19612,7.19391 -11.93692,13.61702 0,0 0.99475,-3.85388 1.24342,-4.62464 1.24343,-4.36774 0.99476,-9.50623 5.2224,-12.33237 -8.20662,1.79847 -8.70399,11.04775 -8.20662,17.98468 0,1.54156 0.24867,2.82618 0,4.36773"
           id="path3648" /><path
           style="fill:#ffffff;fill-opacity:1;stroke-width:0.955355"
           d="m 147.78744,128.70028 c 2.23818,-2.05542 4.97373,-3.85389 6.96323,-6.42311 2.23814,-3.08313 4.22764,-6.68007 7.21186,-9.5062 -3.97897,1.79847 -8.45532,3.33999 -11.19083,7.70773 -1.49213,2.56922 -1.7408,5.65231 -2.98426,8.22158"
           id="path3646" /><path
           style="fill:#ffffff;fill-opacity:1;stroke-width:0.955355"
           d="m 149.52828,140.00494 c 0.99471,-2.05541 1.49209,-4.62465 1.98946,-6.93696 -0.49737,1.0277 -0.99475,2.0554 -1.74079,2.82617 -4.72502,4.11079 -7.46057,6.42311 -8.704,12.84622 l 0.49738,-5.65235 c 0.49734,-5.65231 -2.48688,-11.81851 0.74605,-16.70007 -3.23293,3.59694 -4.97373,8.22159 -4.97373,12.84623 0,6.16617 3.4816,10.5339 3.7303,16.44316 0.99472,-6.16621 5.96845,-10.5339 8.45533,-15.6724"
           id="path3644" /><path
           style="fill:#ffffff;fill-opacity:1;stroke-width:0.955355"
           d="m 153.00987,184.96671 c 0,0 -1.49213,-2.82617 -1.9895,-4.62464 -1.7408,-6.93696 -0.74605,-15.41545 -3.73027,-22.09551 0.49734,3.85388 -0.99475,7.19388 -1.24346,10.79085 -0.49734,4.88156 1.24346,8.22155 2.48688,10.53386 0,0 -1.74079,-2.31231 -2.48688,-3.59693 -3.48159,-5.65231 -10.69346,-9.50619 -11.19083,-16.44316 -0.99476,15.15854 9.20136,19.26934 18.15406,25.43553"
           id="path3642" /><path
           style="fill:#ffffff;fill-opacity:1;stroke-width:0.955355"
           d="m 186.58242,197.04214 c -11.93692,0 -18.15407,10.79084 -29.84228,3.59693 5.71977,7.19391 14.92114,7.70777 22.38171,2.82618 2.98422,-2.05538 5.71977,-4.88155 9.45007,-4.88155 5.71977,0 11.93689,6.1662 17.15932,11.81852 0.99471,-0.77077 1.74076,-1.54156 2.48684,-2.31233 -5.4711,-5.3954 -13.42905,-11.04775 -21.63566,-11.04775"
           id="path3640" /><path
           style="fill:#ffffff;fill-opacity:1;stroke-width:0.955355"
           d="m 176.635,197.55599 c 0.74605,-0.25691 1.7408,-0.25691 2.73555,-0.51385 -3.48163,-0.51385 -6.71452,-1.79846 -9.20136,-4.11079 -3.73031,-3.59693 -6.96323,-7.19387 -10.94221,-10.02005 4.22768,8.73544 5.71978,12.33238 12.683,13.87394 0,0 -1.9895,-0.25691 -2.98425,-0.51386 -7.46057,-1.54156 -16.41323,0.51386 -21.88433,-5.90926 2.23817,4.11079 6.46581,7.45078 10.44479,8.99234 6.46585,2.05541 13.18034,-0.25691 19.14881,-1.79847"
           id="path3638" /><path
           style="fill:#ffffff;fill-opacity:1;stroke-width:0.955355"
           d="m 164.20071,194.47291 c -4.72502,-4.11079 -5.47107,-10.02004 -7.46057,-15.15855 -1.24342,-3.34002 -3.4816,-6.16616 -5.71977,-8.99233 2.98422,8.7354 1.24342,14.90159 8.45532,21.0678 -1.24342,-0.51386 -2.48688,-1.54156 -3.4816,-2.31232 -5.71977,-4.88159 -14.17509,-5.65236 -17.65669,-13.61702 0.99476,5.90925 5.4711,11.04775 10.19612,14.38778 4.72502,3.08308 10.69346,2.82617 15.66719,4.62464"
           id="path1950" /></g><g
         id="g5250"
         transform="translate(-63.56453,-61.024084)"
         style="fill:#5e5e5e;fill-opacity:1"><rect
           style="fill:#a1a1a1;fill-opacity:1;stroke:#ff0000;stroke-width:0.000395032"
           id="rect5205"
           width="5.8208332"
           height="23.8125"
           x="96.382393"
           y="91.205116"
           rx="0.79374999"
           ry="0.79374999" /><rect
           style="fill:#a1a1a1;fill-opacity:1;stroke:#ff0000;stroke-width:0.000395032"
           id="rect5207"
           width="5.8208332"
           height="23.8125"
           x="111.19905"
           y="91.205116"
           rx="0.79374999"
           ry="0.79374999" /><rect
           style="fill:#a1a1a1;fill-opacity:1;stroke:#ff0000;stroke-width:0.000395032"
           id="rect5209"
           width="5.8208332"
           height="23.8125"
           x="126.01572"
           y="91.205116"
           rx="0.79374999"
           ry="0.79374999" /><rect
           style="fill:#a1a1a1;fill-opacity:1;stroke:#ff0000;stroke-width:0.000395032"
           id="rect5211"
           width="5.8208332"
           height="23.8125"
           x="140.83234"
           y="91.205116"
           rx="0.79374999"
           ry="0.79374999" /></g><path
         style="fill:#ffffff;fill-opacity:1;stroke:#ff0000;stroke-width:0.000499992"
         id="path5213"
         sodipodi:type="arc"
         sodipodi:cx="57.970905"
         sodipodi:cy="-21.168547"
         sodipodi:rx="25.135166"
         sodipodi:ry="21.166168"
         sodipodi:start="0"
         sodipodi:end="3.1415927"
         sodipodi:arc-type="slice"
         d="m 83.106071,-21.168547 a 25.135166,21.166168 0 0 1 -12.567583,18.3304399 25.135166,21.166168 0 0 1 -25.135166,-5e-7 25.135166,21.166168 0 0 1 -12.567583,-18.3304394 h 25.135166 z"
         transform="scale(1,-1)" /><rect
         style="fill:#ffffff;fill-opacity:1;stroke:#ff0000;stroke-width:0.001"
         id="rect5217"
         width="66.145836"
         height="5.8208332"
         x="24.85758"
         y="22.764402"
         rx="2.6458333"
         ry="2.6458333" /><path
         id="rect5219"
         style="fill:#ffffff;fill-opacity:1;stroke:#ff0000;stroke-width:0.001"
         d="m 29.64657,55.589332 c -0.43973,0 -0.79376,0.33015 -0.79376,0.74052 v 2.69803 h -3.17499 c -0.43974,0 -0.79376,0.35401 -0.79376,0.79375 v 2.38125 c 0,0.43973 0.35402,0.79375 0.79376,0.79375 h 3.96875 56.61984 3.96979 c 0.43974,0 0.79375,-0.35402 0.79375,-0.79375 v -2.38125 c 0,-0.43974 -0.35401,-0.79375 -0.79375,-0.79375 h -3.17604 v -2.69803 c 0,-0.41037 -0.35402,-0.74052 -0.79375,-0.74052 z" /><g
         aria-label="JAMUN"
         id="text5306"
         style="font-weight:600;font-size:13.4056px;font-family:Montserrat;-inkscape-font-specification:'Montserrat, Semi-Bold';fill:#ff0000;fill-opacity:0.465517;stroke:#ff0000;stroke-width:0.001"
         inkscape:export-filename="Downloads\jamun-white-logo.svg"
         inkscape:export-xdpi="96"
         inkscape:export-ydpi="96"><path
           d="m 35.824353,78.132339 q -0.898176,0 -1.662295,-0.348545 -0.750713,-0.348546 -1.233315,-1.00542 l 0.992014,-1.193099 q 0.388763,0.536224 0.844553,0.804336 0.469196,0.268112 1.018826,0.268112 1.46121,0 1.46121,-1.729322 v -4.852827 h -3.337994 v -1.46121 h 5.080722 v 6.220198 q 0,1.662294 -0.817741,2.480036 -0.804336,0.817741 -2.34598,0.817741 z"
           style="fill:#a1a1a1;fill-opacity:1"
           id="path5003" /><path
           d="m 39.899669,77.998283 4.222764,-9.383919 h 1.715916 l 4.23617,9.383919 H 48.251357 L 44.61844,69.53935 h 0.697091 l -3.619512,8.458933 z m 1.943812,-2.171707 0.469196,-1.367371 h 5.067316 l 0.469196,1.367371 z"
           style="fill:#a1a1a1;fill-opacity:1"
           id="path5005" /><path
           d="m 51.267624,77.998283 v -9.383919 h 1.434399 l 4.102114,6.850261 h -0.750714 l 4.035086,-6.850261 h 1.434399 l 0.0134,9.383919 H 59.88742 l -0.01341,-6.796639 h 0.348546 l -3.431834,5.724191 h -0.777525 l -3.485455,-5.724191 h 0.402167 v 6.796639 z"
           style="fill:#ffffff;fill-opacity:1"
           id="path5007" /><path
           d="m 68.105057,78.132339 q -1.930407,0 -3.029666,-1.085853 -1.085853,-1.085854 -1.085853,-3.13691 v -5.295212 h 1.742728 v 5.228184 q 0,1.447804 0.616657,2.104679 0.630063,0.656874 1.769539,0.656874 1.139476,0 1.756134,-0.656874 0.616658,-0.656875 0.616658,-2.104679 v -5.228184 h 1.715916 v 5.295212 q 0,2.051056 -1.099259,3.13691 -1.085853,1.085853 -3.002854,1.085853 z"
           style="fill:#ffffff;fill-opacity:1"
           id="path5009" /><path
           d="m 74.646982,77.998283 v -9.383919 h 1.4344 l 5.885058,7.225618 h -0.710497 v -7.225618 h 1.729322 v 9.383919 h -1.434399 l -5.885058,-7.225618 h 0.710497 v 7.225618 z"
           style="fill:#ffffff;fill-opacity:1"
           id="path5011" /></g></g></g></svg>
